<?xml version="1.0" encoding="UTF-8"?>
<svg id="_レイヤー_1" data-name="レイヤー 1" xmlns="http://www.w3.org/2000/svg" xmlns:xlink="http://www.w3.org/1999/xlink" viewBox="0 0 154.3 68.1">
  <defs>
    <style>
      .cls-1 {
        fill: #ff0;
        filter: url(#drop-shadow-1);
      }

      .cls-2 {
        fill: #fdfcf3;
      }

      .cls-3 {
        fill: #2db3e9;
      }
    </style>
    <filter id="drop-shadow-1" x="51.8" y="0" width="52" height="50" filterUnits="userSpaceOnUse">
      <feOffset dx="3" dy="4"/>
      <feGaussianBlur result="blur" stdDeviation="4"/>
      <feFlood flood-color="#edd351" flood-opacity=".6"/>
      <feComposite in2="blur" operator="in"/>
      <feComposite in="SourceGraphic"/>
    </filter>
  </defs>
  <g>
    <path class="cls-2" d="M5.8,8.5l4.2,1.4h9l1.7-1.9,3.6,2.7c-.2.2-.6.5-1.3.6v19.6c0,2.5-.6,3.9-5,4.3-.1-1.2-.3-2.1-.9-2.6-.6-.6-1.4-1-3.2-1.3v-.4s3.9.2,4.6.2.7-.2.7-.7v-6.3h-10.2c-.7,4.2-2.9,8.2-8.9,11l-.3-.3c5.1-4.3,5.8-9.8,5.8-15.7v-10.8ZM9.5,17.4v1.8c0,1.4,0,2.8-.2,4.2h10.1v-6h-9.9ZM9.5,10.8v5.8h9.9v-5.8h-9.9Z"/>
    <path class="cls-2" d="M59.2,18.3c-.2.4-.5.5-1.3.5-.9,2.9-2,5.3-3.3,7.4.5,1.3,1.2,2.6,2,3.6.3.5.5.5.8,0,.4-.7,1.1-2.2,1.6-3.4h.3c0,0-.7,5.1-.7,5.1.8,1.9,1,3,.4,3.3-1.6,1-3.8-.5-4.7-1.9-.8-1.1-1.4-2.4-2-3.6-2.2,2.4-4.9,4.2-8.3,5.7l-.3-.4c3.3-2.1,5.7-4.5,7.7-7.7-1.2-3.7-1.7-7.9-1.9-12.4h-6.2v4.6h2.1l1.6-1.5,2.9,2.3c-.2.2-.6.4-1.1.5-.1,5.8-.4,8.4-1.6,9.4-.7.6-1.6.7-2.7.8,0-.6,0-1.3-.4-1.7-.3-.4-1-.8-1.9-1v-.2c-1,2.8-2.9,5.6-6.7,7.7l-.3-.3c3-3,4.1-6.6,4.5-10.3-1.6,1.3-4,3-7.2,5.1,0,.4-.4.7-.8.9l-1.8-4c.7-.1,1.9-.5,3.4-.9v-9h-2.7l-.2-.9h3v-7.9l4.5.4c0,.4-.3.7-1.1.8v6.6l1.4-2.3s1,1,1.8,1.9v-3l3.8,1.3h5.6c0-1.9,0-3.9,0-5.9l4.5.4c0,.1,0,.3-.2.4,5,.1,4.9,2.9,3.4,3.6.7.5,1.6,1.2,2.2,1.8,0,.3-.4.5-.8.5h-5.7c0,2.7.3,5.5.8,7.9.6-1.6,1.2-3.4,1.6-5.4l4.1,1.3ZM36.7,24.7l3.1-.9c0-1.3.1-2.5.1-3.7v-3.4h-3.2v8.1ZM43.3,20c0,2.2-.2,4.8-1,7.3h2.2c.2.1.4,0,.5,0,.4-.5.6-2.7.7-7.4h-2.4v.2ZM55.1,12c-.3-1.2-1.2-2.4-1.9-3.1h-.5c0,1.6,0,3.2,0,4.7h1.7l1.1-1.4-.3-.2Z"/>
  </g>
  <g>
    <path class="cls-2" d="M66.5,46.2v-5.9l4.6.4c0,.4-.3.6-1,.7v4.8h.8l1.9-2.6s1.8,1.5,3,2.7c.9-1.8,1.5-3.9,2-6.1l4.8,1.6c-.1.4-.5.6-1.2.6-.5,1.1-1.1,2.1-1.8,3h5.7l1.9-2.5s2.1,1.7,3.4,2.9c0,.3-.4.5-.9.5h-10.8c-1.5,1.9-3.3,3.5-5.2,4.6l1.3,1.1c-.2.3-.6.4-1.3.5v2c3.6-2,7.4-5.4,9.2-8l3.9,2.4c-.2.2-.5.3-1,.2-1,.8-2.2,1.7-3.6,2.6.3,1.7.8,3.4,1.4,4.9,1.4-1.8,3-4.1,3.7-5.4l3.7,2.6c-.2.2-.7.4-1.3.2-1.2.9-3.6,2.3-5.8,3.2,1.6,3.3,3.9,5.9,6.8,7.2v.3c-1.4.4-2.4,1.5-2.9,3.4-4-3.3-5.4-8.3-6.1-16.2l-1.5.8v14.6c0,.2-1.1.8-2.8.8h-.6v-14c-1,.4-2.1.7-3.1,1-.3,7.3-.8,10.2-2.2,11.4-.9.9-2.1,1.3-3.7,1.3,0-1,0-1.8-.5-2.2-.4-.4-1.2-.8-2.2-1v-.4c.9,0,2.4.2,2.9.2s.7,0,1-.3c.8-.7,1.2-4.4,1.4-12h-2.1c-.4,6.1-1.7,11.8-6.8,16.1l-.4-.4c4-6.1,3.8-13.4,3.8-20.5h-3.2l-.2-.8h4.8ZM75.4,47.1h-6.7c0,1.3,0,2.7-.1,4h1.8l1.8-1.7,1.4,1.1c.7-1,1.4-2.1,2.1-3.5h-.2Z"/>
    <path class="cls-2" d="M97,48.9c-.8.6-1.6,1.1-2.4,1.5l-.3-.2c2.5-2.6,5.1-7.2,6-10.1l4.4,1.6c0,.3-.4.5-1,.6,6.5,1.8,3.1,5.9,1,4-.3-.9-.9-2.2-1.8-3.4-1.3,1.8-3.1,3.8-5.2,5.5l2.5,1h.5v-3.6l3.7.4c0,.3-.2.5-.8.6v2.6h.6l1.4-1.4,2.6,2.2c-.2.2-.6.4-1.1.5v7.8c0,.1-1.2.7-2.4.7h-.6v-1h-4.2v5.1l4-.7c-.6-1-1.3-1.8-1.8-2.6l.3-.2c8.5,2.4,6.1,8.1,3.1,6.1-.2-.8-.6-1.6-1-2.5-1.7,1-4,2.3-6.9,3.8-.2.4-.5.7-.8.8l-2-4,2.2-.3v-14.8ZM104.3,53.3v-3.1h-4.2v3.1h4.2ZM100.1,57.2h4.2v-3.1h-4.2v3.1ZM110.5,42.1c.3.7.4,1.4.5,2.1h2.7v-3.9l4.5.3c0,.4-.3.7-1,.8v2.8h2.4l1.7-1.7,3,2.8c-.2.3-.6.3-1.2.4-.8.6-2,1.4-3,1.9l2.4,1.7c-.2.2-.6.4-1.1.5v6c0,.2-1.7.7-2.8.7h-.6v-1.4h-5.2v3.2h5.7l1.5-1.6,3.2,2.3c-.2.2-.6.5-1.1.6v7.2c0,.3-1.6,1-2.8,1h-.6v-2.3h-6v1.6c0,.4-1.2,1.1-2.6,1.1h-.5v-20.2c-.8.4-1.9.2-2.3-.7-.4-.9.2-1.7,1-2.2.7-.5,1.6-1.8,1.6-3h.5ZM111,45c0,1-.2,1.8-.6,2.4l2.6,1h4.7l1.5-1.6.3.2.3-2h-8.8ZM118,49.3h-5.2v4.9h5.2v-4.9ZM112.9,59.1v5.5h6v-5.5h-6Z"/>
  </g>
  <g>
    <path class="cls-1" d="M75.2,8.9c-.2,0-.4,0-.6,0,3,1.9,4.9,5.1,4.7,8.6-.3,5.3-5.4,9.4-11.3,9-2.9-.2-5.4-1.3-7.2-3.1,1.1,5.6,6.3,10.1,12.9,10.4,7.6.4,14.2-4.8,14.6-11.7.4-6.9-5.4-12.8-13.1-13.3Z"/>
    <path class="cls-3" d="M89.3,31.6c0-.1,0-.2,0-.3,0-1.3-1.1-2.4-2.4-2.4s-1.2.2-1.6.6c-.4-.4-1-.6-1.6-.6-1.3,0-2.4,1-2.4,2.3-1.1.2-2,1.2-2,2.3s1.1,2.4,2.4,2.4,1-.2,1.4-.4c.4.5,1.1.8,1.9.8s1.4-.3,1.9-.9c.4.5,1.1.8,1.8.8,1.4,0,2.4-1.1,2.4-2.4s-.7-2-1.8-2.3Z"/>
  </g>
</svg>